
Click To Enlarge 


-: Cover :-

    	http://desibbrg.org/images/36818878530628295456.jpg


-: Screens :-





    	http://desibbrg.org/images/73119739420329271943.jpg
    	http://desibbrg.org/images/90808435949261423202.jpg
    	http://desibbrg.org/images/86416318513572273447.jpg
    	http://desibbrg.org/images/72118980221722914300.jpg
    	http://desibbrg.org/images/63543847176240598150.jpg
    	http://desibbrg.org/images/20232628092189258150.jpg
    	http://desibbrg.org/images/17331795921416729648.jpg
    	http://desibbrg.org/images/24333113576353967850.jpg
    	http://desibbrg.org/images/72276430110229454264.jpg
    	http://desibbrg.org/images/56598437827327985566.jpg
    	http://desibbrg.org/images/93136282005923758344.jpg
    	http://desibbrg.org/images/30436833555672619912.jpg
    	http://desibbrg.org/images/38999559971211909516.jpg
    	http://desibbrg.org/images/34230389181006510318.jpg
    	http://desibbrg.org/images/11366983310981836861.jpg
    	http://desibbrg.org/images/14581572462012973103.jpg
    	http://desibbrg.org/images/01670811705505829327.jpg
    	http://desibbrg.org/images/06289737425647046625.jpg
    	http://desibbrg.org/images/87035264430825119146.jpg

    	http://desibbrg.org/images/91772893520897697337.jpg


-: Info :-


General

Format                           : MP4 Video
File size                        : 703 MiB
Duration                         : 2h 22mn
Overall bit rate                 : 690 Kbps


Video
Format                           : AVC
Format/Info                      : Advanced Video Codec
Format profile                   : Main@L3.0
Format settings, CABAC           : Yes
Format settings, ReFrames        : 3 frames
Duration                         : 2h 22mn
Bit rate                         : 553 Kbps
Width                            : 640 pixels
Height                           : 480 pixels
Display aspect ratio             : 4:3
Frame rate mode                  : Constant
Frame rate                       : 25.000 fps
Color space                      : YUV
Chroma subsampling               : 4:2:0
Bit depth                        : 8 bits
Scan type                        : Progressive
Bits/(Pixel*Frame)               : 0.072
Stream size                      : 564 MiB (80%)

Audio
Format                           : AAC
Format/Info                      : Advanced Audio Codec
Format version                   : Version 4
Format profile                   : LC
Format settings, SBR             : No
Duration                         : 2h 22mn
Bit rate                         : 129 Kbps
Channel(s)                       : 2 channels
Channel positions                : Front: L R
Sampling rate                    : 44.1 KHz
Bit depth                        : 16 bits
Stream size                      : 131 MiB (19%)
Ripper                           : DADA RRG


 
http://www.imdb.com/title/tt0061467

Directed by
Alo Sarkar	 	(as Alo Sircar)
 
Writing credits
(in alphabetical order)
Abrar Alvi	 	dialogue
Ashapurna Devi	 	story "Aghi pariksha"
Alo Sarkar	 	(as Alo Sircar)

Cast (in credits order)
	Vyjayanthimala	... 	Roopa Choudhury
	Uttam Kumar	... 	Ashok
	Rajendra Nath	... 	Sam Kapoor aka Sam Cooper
	Shashikala	... 	Sonia
	Veena	... 	Shanker's wife
	Tarun Bose	... 	Shanker Choudhury
	Pratima Devi	... 	Shanker's mom
	Badri Prasad		
	Sulochana Chatterjee		
	B.B. Bhalla		
	Radheshyam		
	S. Hussan		
	Vishi Kapoor		
	Ratan Gaurang		
	Praveen Paul		
	Sundeep		
	Pinky		
rest of cast listed alphabetically:
	Sanjeev Kumar	... 	(uncredited)


Produced by
Uttam Kumar	.... 	producer
 
Original Music by
Jaikishan Dayabhai Pankal	 	(as Jaikishan)
Shankarsingh Raghuwanshi	 	(as Shankar)
 
Cinematography by
Kanai Dey	 	
 
Film Editing by
V.K. Naik	 	
 
Art Direction by
Sudhendu Roy	 	
 
Set Decoration by
Sudhendu Roy	 	
 
Sound Department
Sudhendu Roy	.... 	sound editor
Jaywant S. Worlikar	.... 	sound
Zaveri	.... 	sound recordist
 
Music Department
Asha Bhosle	.... 	playback singer
Suman Kalyanpur	.... 	playback singer
Lata Mangeshkar	.... 	playback singer
Jaikishan Dayabhai Pankal	.... 	musical director (as Shankar-Jaikishan)
Mohammad Rafi	.... 	playback singer
Shankarsingh Raghuwanshi	.... 	musical director (as Shankar-Jaikishan)

Shanker Choudhury's (Tarun Bose) mother (Pratima Devi), at the pleas of her dying husband, marries off his (Shanker's) daughter to a youth. Both the children are under-age and do not know nor understand that they have been married. When Shanker's wife (Veena) finds out, she is livid, and refuses to let her child be committed to this marriage. Years pass, Shanker has passed away, though his mother is still alive, and his wife is a widow, and his daughter has now grown up to be a lovely young lady, Roopa (Vyjayanthimala). Roopa has many suitors, but she is attracted to only one - Ashok (Uttam Kumar). Ashok is also attracted to her, and both fall in love. Roopa introduces Ashok to her mother, who approves of him, and plans are set to marry them. Then Roopa finds out that she has already been married in child-hood. This creates a conflict in her. Others too find out and all of a sudden Roopa is shunned, avoided, and even asked not to participate in a wedding ceremony. Ashok is supportive ...
